<svg xmlns="http://www.w3.org/2000/svg" width="32" height="32" version="1" id="drink"><path fill="#24c4bc" d="M32 16c0 8.836-7.164 16-16 16S0 24.836 0 16 7.164 0 16 0s16 7.164 16 16z"></path><path fill="#fff" d="M20.53 7.746c-.818 0-1.5.341-2.046.887l-.205.205c-.409.477-.682 1.091-.682 1.773H8.32c-.136 0-.273.273-.136.41l1.296 1.295h8.458c.068.205.205.342.341.478v.068h-8.254l1.706 1.706 2.865 2.864v4.639c-.955.068-1.842.136-2.524.273-.341.068-.614.204-.887.273a.942.942 0 0 0-.273.204.521.521 0 0 0-.136.341c0 .137.068.273.204.41.069.068.205.136.342.204.272.137.545.205.955.273.818.137 1.91.273 3.137.273 1.228 0 2.251-.068 3.07-.273.41-.068.75-.204 1.023-.273.137-.068.205-.136.341-.204.068-.069.205-.205.205-.41a.521.521 0 0 0-.137-.34c-.068-.069-.204-.137-.272-.205-.205-.069-.546-.205-.887-.273-.614-.137-1.5-.205-2.456-.273v-4.57l2.933-2.933.819-.819c.273.068.477.068.75.068a3.057 3.057 0 0 0 3.07-3.07c0-1.705-1.364-3.069-3.002-3.069-.204.068-.272.068-.34.068.068 0 .068 0 0 0zm.41.546a2.99 2.99 0 0 1 1.296.477l-1.296 1.296V8.292zm-.614 0v1.842L19.03 8.906c.409-.273.818-.546 1.296-.614zm2.25.887c.274.34.478.818.546 1.296h-1.841l1.296-1.296zm-3.887.136 1.296 1.228H18.21c0-.478.137-.955.478-1.228zm-.478 1.774h1.774l-1.296 1.296a1.914 1.914 0 0 1-.478-1.296zm3.07 0h1.841a2.99 2.99 0 0 1-.477 1.296l-1.364-1.296zm-.341.34 1.364 1.297c-.341.34-.819.477-1.364.545V11.43zm-.614.069v1.842c-.478-.069-.887-.273-1.296-.546l1.296-1.296zm-5.594 1.773c.137 0 .273.137.273.273a.293.293 0 0 1-.273.273.293.293 0 0 1-.273-.273c0-.136.137-.273.273-.273zm-1.637.273c.137 0 .273.137.273.273a.293.293 0 0 1-.273.273.293.293 0 0 1-.273-.273c-.068-.136.068-.273.273-.273zm4.57 0c.137 0 .273.137.273.273a.293.293 0 0 1-.273.273.293.293 0 0 1-.272-.273c.068-.136.136-.273.272-.273zm-2.114.614c.136 0 .273.137.273.273a.293.293 0 0 1-.273.273.293.293 0 0 1-.273-.273c0-.136.136-.273.273-.273zm1.364.205c.136 0 .273.136.273.273a.293.293 0 0 1-.273.273.293.293 0 0 1-.273-.273c0-.137.137-.273.273-.273zm-2.729.682c.137 0 .273.136.273.273a.293.293 0 0 1-.273.273.293.293 0 0 1-.272-.273c0-.137.136-.273.272-.273zm1.16.682c.137 0 .273.137.273.273a.293.293 0 0 1-.273.273.293.293 0 0 1-.273-.273c0-.136.068-.273.273-.273z"></path></svg>